<?xml version="1.0" encoding="utf-8"?>
<!-- Generator: Adobe Illustrator 22.1.0, SVG Export Plug-In . SVG Version: 6.00 Build 0)  -->
<svg version="1.1" id="Layer_1" xmlns="http://www.w3.org/2000/svg" xmlns:xlink="http://www.w3.org/1999/xlink" x="0px" y="0px"
	 viewBox="0 0 100 100" style="enable-background:new 0 0 100 100;" xml:space="preserve">
<g>
	<path d="M100,50c0,9.4-2.2,17.8-6.6,25.1c-4.6,7.6-10.7,13.7-18.3,18.3C67.8,97.8,59.4,100,50,100s-17.8-2.2-25.1-6.6
		c-7.6-4.6-13.7-10.7-18.3-18.3C2.2,67.8,0,59.4,0,50c0-9.4,2.2-17.8,6.6-25.1c4.6-7.6,10.7-13.7,18.3-18.3C32.2,2.2,40.6,0,50,0
		s17.8,2.2,25.1,6.6c7.6,4.6,13.7,10.7,18.3,18.3C97.8,32.2,100,40.6,100,50z M75.1,37.4c0-3.7-1.2-7.2-3.7-10.5
		C69,23.6,66,21,62.3,19.2c-3.8-1.7-7.5-2.5-11-2.5c-10.7,0-18.7,4.6-24.2,13.9c-0.6,0.9-0.5,1.8,0.5,2.7l8.7,6.4
		c0.3,0.3,0.7,0.5,1.1,0.5c0.9,0,1.4-0.3,1.6-0.9c1.7-2.1,3.6-4.1,5.7-5.9c1.7-1.1,3.5-1.6,5.5-1.6c2.1,0,4,0.6,5.7,1.8
		c1.7,1.2,2.5,2.5,2.5,3.9c0,1.7-0.5,3-1.4,3.9c-1.2,1.2-2.7,2.2-4.6,3c-2.9,1.2-5.4,3.1-7.5,5.7c-2.3,2.4-3.4,5.1-3.4,8v2.5
		c0,0.6,0.2,1.1,0.7,1.4c0.5,0.5,1,0.7,1.6,0.7h12.3c0.6,0,1.1-0.2,1.6-0.7c0.5-0.3,0.7-0.8,0.7-1.4c0-0.9,0.5-2,1.4-3.2
		c0.9-1.4,2.1-2.5,3.4-3.4c1.2-0.6,2.3-1.2,3.2-1.8c0.9-0.5,1.9-1.2,3-2.3c0.9-0.6,1.9-1.6,3-3c0.8-1.4,1.4-2.7,1.8-4.1
		C74.8,41.3,75.1,39.6,75.1,37.4z M58.4,81.3V68.7c0-0.6-0.2-1.1-0.7-1.4c-0.5-0.5-1-0.7-1.6-0.7H43.8c-0.6,0-1.1,0.2-1.6,0.7
		c-0.5,0.3-0.7,0.8-0.7,1.4v12.6c0,0.6,0.2,1.1,0.7,1.6c0.6,0.3,1.1,0.5,1.6,0.5h12.3c0.5,0,1-0.1,1.6-0.5
		C58.2,82.4,58.4,81.9,58.4,81.3z"/>
</g>
</svg>
