<?xml version="1.0" encoding="utf-8"?>
<!-- Generator: Adobe Illustrator 22.1.0, SVG Export Plug-In . SVG Version: 6.00 Build 0)  -->
<svg version="1.1" id="Layer_1" xmlns="http://www.w3.org/2000/svg" xmlns:xlink="http://www.w3.org/1999/xlink" x="0px" y="0px"
	 viewBox="0 0 100 100" style="enable-background:new 0 0 100 100;" xml:space="preserve">
<g>
	<path d="M100,50c0,9.4-2.2,17.8-6.6,25.1c-4.6,7.6-10.7,13.7-18.3,18.3C67.8,97.8,59.4,100,50,100s-17.8-2.2-25.1-6.6
		c-7.6-4.6-13.7-10.7-18.3-18.3C2.2,67.8,0,59.4,0,50c0-9.4,2.2-17.8,6.6-25.1c4.6-7.6,10.7-13.7,18.3-18.3C32.2,2.2,40.6,0,50,0
		s17.8,2.2,25.1,6.6c7.6,4.6,13.7,10.7,18.3,18.3C97.8,32.2,100,40.6,100,50z M85.4,50c0-6.2-1.5-12.2-4.6-17.8
		c-3.2-5.5-7.5-9.8-13-13c-5.6-3-11.6-4.6-17.8-4.6s-12.2,1.5-17.8,4.6c-5.5,3.2-9.8,7.5-13,13c-3,5.6-4.6,11.6-4.6,17.8
		c0,6.2,1.5,12.2,4.6,17.8c3.2,5.5,7.5,9.8,13,13c5.6,3,11.6,4.6,17.8,4.6s12.2-1.5,17.8-4.6c5.5-3.2,9.8-7.5,13-13
		C83.9,62.2,85.4,56.2,85.4,50z M58.4,26.9v29.2c0,0.6-0.2,1.1-0.7,1.6c-0.5,0.5-1,0.7-1.6,0.7H35.4c-0.6,0-1.1-0.2-1.6-0.7
		c-0.3-0.6-0.5-1.1-0.5-1.6v-4.1c0-0.6,0.2-1.1,0.5-1.4c0.5-0.5,1-0.7,1.6-0.7H50V26.9c0-0.5,0.2-0.9,0.7-1.4
		c0.2-0.5,0.6-0.7,1.4-0.7h4.1c0.6,0,1.1,0.2,1.6,0.7C58.2,26,58.4,26.5,58.4,26.9z"/>
</g>
</svg>
