<?xml version="1.0" encoding="utf-8"?>
<!-- Generator: Adobe Illustrator 22.1.0, SVG Export Plug-In . SVG Version: 6.00 Build 0)  -->
<svg version="1.1" id="Layer_1" xmlns="http://www.w3.org/2000/svg" xmlns:xlink="http://www.w3.org/1999/xlink" x="0px" y="0px"
	 viewBox="0 0 100 100" style="enable-background:new 0 0 100 100;" xml:space="preserve">
<style type="text/css">
	.st0{fill:#598FFD;}
</style>
<g>
	<path class="st0" d="M35.8,45c-0.5-0.3-1.2-0.5-1.9-0.5c-0.5,0-1,0.1-1.4,0.3c-0.4,0.2-0.7,0.4-1,0.7c-0.3,0.4-0.6,0.9-0.8,1.6
		c-0.3,0.8-0.4,1.7-0.4,2.8c0,1.1,0.1,2,0.4,2.9c0.2,0.7,0.5,1.2,0.8,1.6c0.3,0.4,0.7,0.6,1,0.8c0.4,0.2,0.9,0.3,1.4,0.3
		c0.7,0,1.3-0.2,1.8-0.5c0.5-0.3,0.9-0.8,1.2-1.5c0.4-0.9,0.6-2.1,0.6-3.6c0-1.4-0.2-2.5-0.6-3.4C36.7,45.8,36.3,45.3,35.8,45z"/>
	<path class="st0" d="M50,0C22.4,0,0,22.4,0,50s22.4,50,50,50s50-22.4,50-50S77.6,0,50,0z M49.1,56.5c-0.7,2.1-1.8,3.9-3.2,5.5
		c-1.4,1.6-3.2,2.8-5.3,3.7c-2,0.8-4.2,1.2-6.7,1.2c-2.5,0-4.7-0.4-6.7-1.2c-2.1-0.9-3.9-2.1-5.3-3.7c-1.4-1.5-2.5-3.4-3.1-5.5
		c-0.7-2-1-4.2-1-6.5c0-2.4,0.4-4.6,1-6.6c0.7-2.1,1.8-4,3.2-5.5c1.4-1.5,3.2-2.7,5.2-3.5c2-0.8,4.2-1.2,6.6-1.2
		c3.3,0,6.2,0.7,8.6,2.1c2.5,1.4,4.5,3.5,5.8,6.1c1.2,2.5,1.8,5.4,1.8,8.6C50.1,52.3,49.7,54.5,49.1,56.5z M80.4,65.2
		c-0.8,0.7-2.2,1.6-4.3,1.6c-1.5,0-2.7-0.4-3.8-1.1c-0.9-0.6-1.6-1.4-2.2-2.3c-0.3-0.5-0.6-1-0.8-1.4l-3.7-5.7v3.7
		c0,2-0.6,3.7-1.7,4.9c-1.2,1.2-2.7,1.9-4.5,1.9c-1.1,0-2.1-0.3-3.1-0.8c-1-0.6-1.8-1.3-2.3-2.3l-0.1-0.1c-0.4-0.7-0.6-1.6-0.7-2.5
		c0-0.5-0.1-1.2-0.1-2.2v-19c0-1.9,0.5-3.5,1.6-4.7c1.1-1.3,2.8-2,4.6-2c1.8,0,3.4,0.7,4.5,1.9c1.1,1.2,1.7,2.8,1.7,4.8l4-4.1
		c0.7-0.7,1.2-1.2,1.8-1.6c1-0.7,2.1-1,3.5-1c1.7,0,3.2,0.6,4.3,1.6c1.2,1.1,1.8,2.6,1.8,4.2c0,1.2-0.4,3.1-2.3,4.9l-4.1,3.8
		l5.5,7.9c0.6,0.9,1.1,1.7,1.5,2.4c0.5,1,0.7,2.1,0.7,3.1C82.2,62.7,81.6,64.1,80.4,65.2z"/>
</g>
</svg>
