<?xml version="1.0" encoding="utf-8"?>
<!-- Generator: Adobe Illustrator 22.1.0, SVG Export Plug-In . SVG Version: 6.00 Build 0)  -->
<svg version="1.1" id="Layer_1" xmlns="http://www.w3.org/2000/svg" xmlns:xlink="http://www.w3.org/1999/xlink" x="0px" y="0px"
	 viewBox="0 0 100 100" style="enable-background:new 0 0 100 100;" xml:space="preserve">
<style type="text/css">
	.st0{fill:#49D156;}
</style>
<path class="st0" d="M50,0C22.5,0,0,22.5,0,50s22.5,50,50,50s50-22.5,50-50S77.5,0,50,0z M75.6,41.2L47.5,73.1
	c-1.2,1.2-3.1,1.2-4.4,0.6L23.1,60c-1.9-1.3-1.9-3.1-0.6-4.4l6.2-8.8c0.6-1.9,2.5-1.9,4.4-1.2l6.9,5c1.2,1.2,3.1,0.6,4.4-0.6
	l18.1-20c1.2-1.2,3.1-1.2,4.4,0l8.1,6.9C76.2,38.1,76.2,40,75.6,41.2z"/>
</svg>
