<?xml version="1.0" encoding="utf-8"?>
<!-- Generator: Adobe Illustrator 22.1.0, SVG Export Plug-In . SVG Version: 6.00 Build 0)  -->
<svg version="1.1" id="Layer_1" xmlns="http://www.w3.org/2000/svg" xmlns:xlink="http://www.w3.org/1999/xlink" x="0px" y="0px"
	 viewBox="0 0 183 116" style="enable-background:new 0 0 183 116;" xml:space="preserve">
<style type="text/css">
	.st0{fill:#FFFFFF;}
</style>
<g>
	<g>
		<path class="st0" d="M24.6,11.3V35c0,5.4,1.6,7,3.5,7c2.1,0,3.5-1.5,3.5-7V11.3h7.1v22.5c0,9.4-3.5,14.5-10.6,14.5
			c-7.6,0-10.6-5.3-10.6-14.4V11.3H24.6z"/>
		<path class="st0" d="M44.1,29.3c0-2.9-0.2-5.5-0.2-8h6.1l0.3,3h0.1c1.4-2.1,3.7-3.5,6.5-3.5c5,0,7,4,7,9.9v17h-7.1V31.2
			c0-2.2-0.5-4.4-2.6-4.4c-1.2,0-2.2,0.8-2.7,2.4c-0.2,0.5-0.4,1.4-0.4,2.4v16.2h-7.1V29.3z"/>
		<path class="st0" d="M88.4,39.8c0,2.8,0.1,5.6,0.2,8.1h-6.1L82.1,45H82c-1.2,1.8-3.4,3.3-6.1,3.3c-5,0-7.1-3.7-7.1-10.9v-16h7.2
			v15.3c0,3.5,0.7,5.7,2.7,5.7c1.2,0,2-0.9,2.3-1.8c0.3-0.5,0.4-1.4,0.4-2.3V21.3h7.1V39.8z"/>
		<path class="st0" d="M93.3,41.4c1,0.7,3,1.4,4.8,1.4c1.8,0,2.9-0.8,2.9-2.4c0-1.4-0.8-2.2-3.1-3.6c-4.3-2.4-5.4-5.2-5.4-7.6
			c0-4.8,3.4-8.3,8.7-8.3c2.2,0,4,0.5,5.4,1.2l-1.2,5.2c-1-0.6-2.3-1.1-3.7-1.1c-1.8,0-2.7,1.1-2.7,2.3s0.6,1.8,3.1,3.3
			c3.9,2.2,5.4,5,5.4,8c0,5.4-3.9,8.3-9.4,8.3c-2.2,0-4.8-0.6-6.1-1.5L93.3,41.4z"/>
		<path class="st0" d="M130.5,39.8c0,2.8,0.1,5.6,0.2,8.1h-6.1l-0.4-2.8h-0.1c-1.2,1.8-3.4,3.3-6.1,3.3c-5,0-7.1-3.7-7.1-10.9v-16
			h7.2v15.3c0,3.5,0.7,5.7,2.7,5.7c1.2,0,2-0.9,2.3-1.8c0.3-0.5,0.4-1.4,0.4-2.3V21.3h7.1V39.8z"/>
		<path class="st0" d="M153.4,41.8c0,2.1,0.1,4.3,0.4,6.1h-6.4l-0.4-2.6h-0.1c-1.5,2.1-3.5,3-5.9,3c-4,0-7-3.4-7-8.1
			c0-6.9,6.1-9.8,12.1-9.9v-0.6c0-2.1-1.2-3.6-3.7-3.6c-2.1,0-3.8,0.5-5.4,1.5l-1.3-4.8c1.5-0.9,4.6-2,8.2-2c8.1,0,9.4,5.6,9.4,11
			V41.8z M146.4,34.9c-2.4,0.1-5.6,0.8-5.6,4.5c0,2.7,1.5,3.6,2.5,3.6c1.1,0,2.4-0.7,2.9-2.3c0.1-0.4,0.2-0.8,0.2-1.2V34.9z"/>
		<path class="st0" d="M158.4,10.3h7.1v37.5h-7.1V10.3z"/>
	</g>
	<g>
		<path class="st0" d="M11.8,88c1.5,0.8,4,1.4,6,1.4c3.4,0,5-1.7,5-4.1c0-2.7-1.6-4-4.7-6c-5-3-6.9-6.9-6.9-10.2
			c0-5.9,3.9-10.7,11.5-10.7c2.4,0,4.7,0.7,5.7,1.3l-1.1,6.1c-1-0.7-2.6-1.2-4.7-1.2c-3,0-4.5,1.8-4.5,3.8c0,2.2,1.1,3.3,5,5.7
			c4.8,2.9,6.6,6.6,6.6,10.5c0,6.7-4.9,11.1-12.1,11.1c-2.9,0-5.8-0.8-7-1.5L11.8,88z"/>
		<path class="st0" d="M53.3,87.2c0,2.8,0.1,5.6,0.2,8.1h-6.1L47,92.5h-0.1c-1.2,1.8-3.4,3.3-6.1,3.3c-5,0-7.1-3.7-7.1-10.9v-16h7.2
			v15.3c0,3.5,0.7,5.7,2.7,5.7c1.2,0,2-0.9,2.3-1.8c0.3-0.5,0.4-1.4,0.4-2.3V68.8h7.1V87.2z"/>
		<path class="st0" d="M58.2,88.9c1,0.7,3,1.4,4.8,1.4c1.8,0,2.9-0.8,2.9-2.4c0-1.4-0.8-2.2-3.1-3.6c-4.3-2.4-5.4-5.2-5.4-7.6
			c0-4.8,3.4-8.3,8.7-8.3c2.2,0,4,0.5,5.4,1.2l-1.2,5.2c-1-0.6-2.3-1.1-3.7-1.1c-1.8,0-2.7,1.1-2.7,2.3s0.6,1.8,3.1,3.3
			c3.9,2.2,5.4,5,5.4,8c0,5.4-3.9,8.3-9.4,8.3c-2.2,0-4.8-0.6-6.1-1.5L58.2,88.9z"/>
		<path class="st0" d="M75.9,77.2c0-3.2-0.1-5.9-0.2-8.4h6.2l0.4,3h0.1c1.1-2.2,3.1-3.5,5.5-3.5c5.9,0,8.2,6.3,8.2,13.7
			c0,9.4-4.2,13.7-8.6,13.7c-2.2,0-3.6-1.4-4.4-2.6H83v12.6h-7.1V77.2z M83,85.6c0,0.9,0.1,1.7,0.4,2.3c0.5,1.6,1.5,2.1,2.3,2.1
			c2.5,0,3.4-3.7,3.4-7.9c0-5-1.2-7.8-3.3-7.8c-1.1,0-2.1,1-2.4,2.3c-0.3,0.5-0.3,1.2-0.3,1.9V85.6z"/>
		<path class="st0" d="M106.1,84.5c0.1,4.1,2.5,5.6,5.6,5.6c2,0,3.8-0.4,5-0.9l1,5.1c-1.8,0.7-4.6,1.2-7.3,1.2
			c-7.2,0-11.2-4.8-11.2-13.1c0-8.9,4.6-14.2,10.6-14.2c5.7,0,9,4.5,9,12.5c0,1.9-0.1,2.9-0.2,3.7H106.1z M112.5,79.6
			c0-3.4-0.9-6.1-3-6.1c-2.3,0-3.3,3.4-3.3,6.1H112.5z"/>
		<path class="st0" d="M137.6,94.8c-0.7,0.3-2.5,0.8-4.5,0.8c-6.7,0-11.1-4.7-11.1-13.3c0-8.2,4.8-13.9,12.1-13.9
			c1.7,0,3.2,0.4,3.9,0.7l-0.9,5.6c-0.6-0.2-1.5-0.5-2.7-0.5c-3.4,0-5.4,3.3-5.4,7.9c0,4.8,2,7.8,5.3,7.8c1,0,1.9-0.2,2.7-0.5
			L137.6,94.8z"/>
		<path class="st0" d="M149.8,61.8v6.9h5.2v5h-5.2v12.1c0,3.1,1.3,3.8,2.7,3.8c0.7,0,1.2-0.1,1.8-0.2l0.1,5.5
			c-1,0.3-2.4,0.5-4.3,0.5c-2.1,0-3.8-0.5-5.1-1.7c-1.5-1.4-2.3-3.4-2.3-7.6V73.8h-3.1v-5h3.1V64L149.8,61.8z"/>
		<path class="st0" d="M158.1,88.9c1,0.7,3,1.4,4.8,1.4c1.8,0,2.9-0.8,2.9-2.4c0-1.4-0.8-2.2-3.1-3.6c-4.3-2.4-5.4-5.2-5.4-7.6
			c0-4.8,3.4-8.3,8.7-8.3c2.2,0,4,0.5,5.4,1.2l-1.2,5.2c-1-0.6-2.3-1.1-3.7-1.1c-1.8,0-2.7,1.1-2.7,2.3s0.6,1.8,3.1,3.3
			c3.9,2.2,5.4,5,5.4,8c0,5.4-3.9,8.3-9.4,8.3c-2.2,0-4.8-0.6-6.1-1.5L158.1,88.9z"/>
	</g>
</g>
</svg>
