<?xml version="1.0" encoding="utf-8"?>
<!-- Generator: Adobe Illustrator 22.1.0, SVG Export Plug-In . SVG Version: 6.00 Build 0)  -->
<svg version="1.1" id="Layer_1" xmlns="http://www.w3.org/2000/svg" xmlns:xlink="http://www.w3.org/1999/xlink" x="0px" y="0px"
	 viewBox="0 0 100 100" style="enable-background:new 0 0 100 100;" xml:space="preserve">
<style type="text/css">
	.st0{fill:#D14949;}
</style>
<path class="st0" d="M50,0C22.5,0,0,22.5,0,50s22.5,50,50,50s50-22.5,50-50S77.5,0,50,0z M72.5,65.6L65,73.1c-1.2,1.2-3.1,1.2-4.4,0
	L52.5,65c-1.2-1.2-3.1-1.2-4.4,0L40,73.1c-1.2,1.2-3.1,1.2-4.4,0l-7.5-7.5c-1.2-1.2-1.2-3.1,0-4.4l8.1-8.1c1.2-1.2,1.2-3.1,0-4.4
	L26.9,40c-1.2-1.2-1.2-3.1,0-4.4l7.5-7.5c1.2-1.2,3.1-1.2,4.4,0l8.1,8.1c1.9,1.2,3.8,1.2,5,0l8.1-8.1c1.2-1.2,3.1-1.2,4.4,0l7.5,7.5
	c1.2,1.2,1.2,3.1,0,4.4l-8.1,8.1c-1.2,1.2-1.2,3.1,0,4.4l8.1,8.1C73.8,62.5,73.8,64.4,72.5,65.6z"/>
</svg>
