<?xml version="1.0" encoding="utf-8"?>
<!-- Generator: Adobe Illustrator 22.1.0, SVG Export Plug-In . SVG Version: 6.00 Build 0)  -->
<svg version="1.1" id="Layer_1" xmlns="http://www.w3.org/2000/svg" xmlns:xlink="http://www.w3.org/1999/xlink" x="0px" y="0px"
	 viewBox="0 0 100 100" style="enable-background:new 0 0 100 100;" xml:space="preserve">
<g>
	<path d="M23.8,69.2c1.3,1.2,2.4,1.9,3.1,2c0.7,0.1,1.4,0.2,2,0.2V100H7.5V64.3l-1.8-0.2c-1.2-0.1-2.4-0.8-3.6-2
		c-1.2-1.2-1.8-2.8-1.8-4.9v-25c0-2.1,0.7-3.7,2-4.9c1.3-1.2,2.4-1.9,3.1-2c0.7-0.1,1.4-0.2,2-0.2h15.2c-0.6,1.3-0.9,2.5-0.9,3.6
		v35.7C21.8,66.4,22.5,68,23.8,69.2z M14.2,18.3c-2.1-2.1-3.1-4.6-3.1-7.6c0-3,1-5.5,3.1-7.6C16.3,1,18.8,0,21.8,0s5.5,1,7.6,3.1
		c2.1,2.1,3.1,4.6,3.1,7.6c0,3.9-1.6,6.8-4.9,8.9l-0.4,0.2c0,0.1-0.1,0.2-0.2,0.2c-1.6,0.9-3.3,1.3-5.1,1.3
		C18.8,21.4,16.3,20.4,14.2,18.3z M71.8,57.1c0,2.1-0.7,3.7-2,4.9c-1.3,1.2-2.4,1.9-3.1,2c-0.7,0.1-1.4,0.2-2,0.2V100H36.1V64.3
		l-1.8-0.2c-1.2-0.1-2.4-0.8-3.6-2c-1.2-1.2-1.8-2.8-1.8-4.9v-25c0-2.1,0.7-3.7,2-4.9c1.3-1.2,2.4-1.9,3.1-2c0.7-0.1,1.4-0.2,2-0.2
		h28.6c2.1,0,3.7,0.7,4.9,2c1.2,1.3,1.9,2.4,2,3.1c0.1,0.7,0.2,1.4,0.2,2V57.1z M39.7,10.7c0-3,1-5.5,3.1-7.6C44.9,1,47.4,0,50.4,0
		c3,0,5.5,1,7.6,3.1c2.1,2.1,3.1,4.6,3.1,7.6c0,3-1,5.5-3.1,7.6c-2.1,2.1-4.6,3.1-7.6,3.1c-3,0-5.5-1-7.6-3.1
		C40.7,16.2,39.7,13.7,39.7,10.7z M68.2,10.7c0-3,1-5.5,3.1-7.6C73.4,1,76,0,78.9,0s5.5,1,7.6,3.1c2.1,2.1,3.1,4.6,3.1,7.6
		c0,3-1,5.5-3.1,7.6c-2.1,2.1-4.6,3.1-7.6,3.1c-1.9,0-3.6-0.4-5.1-1.3c-0.1,0-0.3-0.1-0.4-0.2l-0.2-0.2
		C69.9,17.6,68.2,14.6,68.2,10.7z M98.1,27c1.2,1.3,1.9,2.4,2,3.1c0.1,0.7,0.2,1.4,0.2,2v25c0,2.1-0.7,3.7-2,4.9
		c-1.3,1.2-2.4,1.9-3.1,2c-0.7,0.1-1.4,0.2-2,0.2V100H71.8V71.4l1.8-0.2c1.2-0.1,2.4-0.8,3.6-2c1.2-1.2,1.8-2.8,1.8-4.9V28.6
		L78.1,25h15.2C95.3,25,97,25.7,98.1,27z"/>
</g>
</svg>
